<?xml version="1.0" standalone="no"?>
<svg xmlns:xlink="http://www.w3.org/1999/xlink" id="wave" style="transform:rotate(0deg); transition: 0.3s" viewBox="0 0 1440 470" version="1.1" xmlns="http://www.w3.org/2000/svg"><defs><linearGradient id="sw-gradient-0" x1="0" x2="0" y1="1" y2="0"><stop stop-color="rgba(24, 24, 32, 1)" offset="0%"/><stop stop-color="rgba(255, 149, 23, 1)" offset="100%"/></linearGradient></defs><path style="transform:translate(0, 0px); opacity:1" fill="url(#sw-gradient-0)" d="M0,282L40,305.5C80,329,160,376,240,344.7C320,313,400,204,480,180.2C560,157,640,219,720,242.8C800,266,880,251,960,250.7C1040,251,1120,266,1200,227.2C1280,188,1360,94,1440,78.3C1520,63,1600,125,1680,195.8C1760,266,1840,345,1920,368.2C2000,392,2080,360,2160,297.7C2240,235,2320,141,2400,148.8C2480,157,2560,266,2640,282C2720,298,2800,219,2880,227.2C2960,235,3040,329,3120,360.3C3200,392,3280,360,3360,297.7C3440,235,3520,141,3600,86.2C3680,31,3760,16,3840,78.3C3920,141,4000,282,4080,336.8C4160,392,4240,360,4320,321.2C4400,282,4480,235,4560,195.8C4640,157,4720,125,4800,125.3C4880,125,4960,157,5040,141C5120,125,5200,63,5280,101.8C5360,141,5440,282,5520,352.5C5600,423,5680,423,5720,423L5760,423L5760,470L5720,470C5680,470,5600,470,5520,470C5440,470,5360,470,5280,470C5200,470,5120,470,5040,470C4960,470,4880,470,4800,470C4720,470,4640,470,4560,470C4480,470,4400,470,4320,470C4240,470,4160,470,4080,470C4000,470,3920,470,3840,470C3760,470,3680,470,3600,470C3520,470,3440,470,3360,470C3280,470,3200,470,3120,470C3040,470,2960,470,2880,470C2800,470,2720,470,2640,470C2560,470,2480,470,2400,470C2320,470,2240,470,2160,470C2080,470,2000,470,1920,470C1840,470,1760,470,1680,470C1600,470,1520,470,1440,470C1360,470,1280,470,1200,470C1120,470,1040,470,960,470C880,470,800,470,720,470C640,470,560,470,480,470C400,470,320,470,240,470C160,470,80,470,40,470L0,470Z"/></svg>